<svg width="29" height="28" viewBox="0 0 29 28" fill="none" xmlns="http://www.w3.org/2000/svg">
<g clip-path="url(#clip0_2044_673)">
<path d="M22.536 2.856H21.9764V1.428C21.9764 0.56 21.3888 0 20.5494 0C19.71 0 19.1224 0.56 19.1224 1.428V2.856H9.83265V1.428C9.83265 0.56 9.27303 0 8.40562 0C7.53821 0 6.97859 0.56 6.97859 1.428V2.856H5.69146C2.9773 2.856 0.682861 5.152 0.682861 7.868V23.016C0.682861 25.732 2.9773 28.028 5.69146 28.028H22.536C25.2502 28.028 27.5446 25.732 27.5446 23.016V7.868C27.5446 5.152 25.2502 2.856 22.536 2.856ZM5.69146 5.712H22.536C23.6833 5.712 24.6906 6.72 24.6906 7.868V9.856H3.53692V7.868C3.53692 6.72 4.54424 5.712 5.69146 5.712ZM22.536 25.144H5.69146C4.54424 25.144 3.53692 24.136 3.53692 22.988V12.712H24.6626V22.988C24.6906 24.136 23.6833 25.144 22.536 25.144Z" fill="#2F4CDD"/>
</g>
<defs>
<clipPath id="clip0_2044_673">
<rect width="27.981" height="28" fill="white" transform="translate(0.123291)"/>
</clipPath>
</defs>
</svg>
