<svg width="84" height="84" viewBox="0 0 84 84" fill="none" xmlns="http://www.w3.org/2000/svg">
<circle cx="42" cy="42" r="42" fill="#DEE4FF"/>
<path d="M55.75 35.75H54.0064L54.2189 33.6224C54.2709 33.1011 54.2131 32.5747 54.0493 32.0772C53.8854 31.5796 53.6192 31.1219 53.2676 30.7335C52.9161 30.3451 52.4871 30.0347 52.0082 29.8222C51.5294 29.6098 51.0114 29.5 50.4875 29.5H31.0125C30.4885 29.5 29.9704 29.6099 29.4915 29.8224C29.0126 30.0349 28.5835 30.3454 28.2319 30.7339C27.8803 31.1224 27.614 31.5803 27.4502 32.0779C27.2864 32.5756 27.2287 33.1021 27.2807 33.6235L29.2815 53.6224C29.3151 53.9222 29.3847 54.2168 29.4888 54.5H25.75C25.4185 54.5 25.1005 54.6317 24.8661 54.8661C24.6317 55.1005 24.5 55.4185 24.5 55.75C24.5 56.0815 24.6317 56.3995 24.8661 56.6339C25.1005 56.8683 25.4185 57 25.75 57H55.75C56.0815 57 56.3995 56.8683 56.6339 56.6339C56.8683 56.3995 57 56.0815 57 55.75C57 55.4185 56.8683 55.1005 56.6339 54.8661C56.3995 54.6317 56.0815 54.5 55.75 54.5H52.0115C52.1154 54.2172 52.1849 53.9229 52.2185 53.6235L52.881 47H55.75C56.7442 46.9989 57.6974 46.6035 58.4004 45.9004C59.1035 45.1974 59.4989 44.2442 59.5 43.25V39.5C59.4989 38.5058 59.1035 37.5526 58.4004 36.8496C57.6974 36.1465 56.7442 35.7511 55.75 35.75ZM33.0125 54.5C32.7024 54.501 32.4031 54.3862 32.1733 54.1782C31.9434 53.9701 31.7995 53.6836 31.7698 53.375L29.7685 33.3758C29.7511 33.2019 29.7703 33.0263 29.8249 32.8603C29.8795 32.6943 29.9682 32.5416 30.0854 32.412C30.2026 32.2824 30.3456 32.1788 30.5053 32.1078C30.665 32.0369 30.8378 32.0001 31.0125 32H50.4875C50.6622 32.0001 50.8349 32.0368 50.9945 32.1077C51.1541 32.1786 51.2972 32.2822 51.4143 32.4117C51.5315 32.5412 51.6203 32.6939 51.6749 32.8598C51.7295 33.0257 51.7488 33.2012 51.7315 33.375L49.7308 53.3762C49.7007 53.6848 49.5566 53.971 49.3267 54.1788C49.0967 54.3867 48.7975 54.5012 48.4875 54.5H33.0125ZM57 43.25C56.9998 43.5815 56.868 43.8993 56.6337 44.1337C56.3993 44.368 56.0815 44.4998 55.75 44.5H53.1311L53.7561 38.25H55.75C56.0815 38.2502 56.3993 38.382 56.6337 38.6163C56.868 38.8507 56.9998 39.1685 57 39.5V43.25Z" fill="#2F4CDD"/>
</svg>
