<svg width="84" height="84" viewBox="0 0 84 84" fill="none" xmlns="http://www.w3.org/2000/svg">
<circle cx="42" cy="42" r="42" fill="#DEE4FF"/>
<path d="M41.68 59.48H43.84V56.24C49.28 55.88 52.08 52.08 52.08 48.36C52.08 42.8 47.8 41.64 43.84 40.64V30.88C46.28 31.4 47.6 33.2 47.84 34.92H51.72C51.32 30.88 48.4 28.2 43.84 27.8V24.48H41.68V27.8C36.68 28.12 33.4 31.2 33.4 35.52C33.4 41.04 37.68 42.2 41.68 43.24V53.24C38.84 52.8 37.52 50.84 37.32 48.76H33.44C33.52 53 36.88 55.8 41.68 56.24V59.48ZM48.44 48.56C48.44 50.96 46.8 52.96 43.84 53.28V43.84C46.4 44.6 48.44 45.72 48.44 48.56ZM37.12 35.32C37.12 32.48 39 31.04 41.68 30.8V40.04C39.12 39.24 37.12 38.16 37.12 35.32Z" fill="#2F4CDD"/>
</svg>
