<svg width="23" height="28" viewBox="0 0 23 28" fill="none" xmlns="http://www.w3.org/2000/svg">
<path d="M9.4402 27.9558C9.53048 27.9856 9.62306 28.0001 9.7146 28.0001C9.98605 28.0001 10.2486 27.8732 10.4168 27.6467L21.8607 12.2248C22.0577 11.9594 22.0883 11.6055 21.9398 11.31C21.7914 11.0146 21.4891 10.8282 21.1587 10.8282H13.3764V0.874999C13.3764 0.495358 13.1318 0.15903 12.7708 0.042327C12.4098 -0.0743215 12.0148 0.0551786 11.7928 0.363124L0.676951 15.7849C0.484909 16.0514 0.458185 16.403 0.607709 16.6954C0.757232 16.9878 1.05786 17.1718 1.38615 17.1718H8.84036V27.125C8.84036 27.5024 9.08213 27.8373 9.4402 27.9558ZM3.09496 15.4218L11.6276 3.58389V11.7032C11.6276 12.1865 12.0191 12.5782 12.502 12.5782H19.4202L10.5892 24.479V16.2968C10.5892 15.8136 10.1977 15.4218 9.71477 15.4218H3.09496Z" fill="#2F4CDD"/>
</svg>
