<svg width="52" height="52" viewBox="0 0 52 52" fill="none" xmlns="http://www.w3.org/2000/svg">
<rect width="52" height="52" rx="14" fill="url(#paint0_linear_2044_461)"/>
<path d="M10.0382 25.4488C10.2404 28.1173 11.5544 37.2678 20.0394 40.1782C20.6971 41.2015 21.0959 41.3037 21.255 41.3447C22.7072 41.7128 24.303 41.8995 25.9991 41.8995C27.6596 41.8995 29.2249 41.7205 30.6541 41.367C31.0568 41.2662 31.5264 40.856 32.0539 40.145C33.7059 39.5661 35.0785 38.7458 36.2273 37.7869C36.3069 37.7399 36.3748 37.6819 36.4317 37.6136C41.2175 33.4505 41.8911 26.8115 41.9848 25.1161C41.9894 25.062 42 24.7165 42 24.7073C42 21.7383 34.8006 20.9123 29.629 20.7012C32.4546 16.7527 35.2719 15.403 37.9974 14.1026C38.7116 13.761 39.3873 13.4396 40.056 13.0733C40.9106 12.6079 41.2645 11.7777 40.9233 10.9786C40.6295 10.2654 39.8315 9.86233 39.0925 10.043C34.0298 11.2742 30.3847 14.5223 27.7236 16.8938C27.3551 17.2208 27.0068 17.532 26.6769 17.817C25.8421 18.5376 24.5307 19.0086 23.0774 19.1086C20.8672 19.2589 19.0529 20.0085 17.7789 21.0102C12.4779 21.5901 10 22.7672 10 24.707C10 24.7162 10.0014 25.2554 10.0382 25.4488ZM17.2931 27.018C15.97 26.8511 14.9188 26.6496 14.102 26.4328C14.4655 26.3519 15.8565 26.1044 16.1701 26.0591C16.4586 26.477 16.8575 26.791 17.2931 27.018ZM35.3763 36.4517C31.8124 37.9531 27.5941 38.3583 25.6423 38.3583C25.2085 38.3583 24.8574 38.7105 24.8574 39.1436C24.8574 39.5764 25.2088 39.9286 25.6423 39.9286C26.9633 39.9286 28.7214 39.7868 30.6007 39.4477C30.4455 39.634 30.2973 39.7942 30.2107 39.8586C28.9233 40.1722 27.5068 40.3306 25.9991 40.3306C24.4766 40.3306 23.0484 40.169 21.7539 39.8515C21.6313 39.7242 21.4004 39.4042 21.231 39.1203C21.1323 38.9576 20.9782 38.8339 20.7964 38.7759C14.3604 36.7095 12.4157 30.7579 11.8266 27.2885C13.7632 28.2163 17.7531 29.0324 25.9995 29.0324C29.6078 29.0324 36.8051 28.8086 40.1773 27.1436C39.7452 29.694 38.567 33.6991 35.3763 36.4517ZM40.4311 24.707C40.4311 24.7176 40.4294 24.8325 40.4195 25.0291C40.1868 25.9194 35.9109 27.4628 25.9995 27.4628C24.2411 27.4628 22.6846 27.424 21.3049 27.3539C22.4541 27.099 23.7694 26.5488 25.1873 25.4951C25.4571 25.4937 25.7269 25.4923 25.9995 25.4923C29.3607 25.4923 32.4867 25.6755 35.0393 26.0206C35.0746 26.0248 35.11 26.0276 35.1461 26.0276C35.5322 26.0276 35.8692 25.7416 35.9222 25.3477C35.9802 24.9184 35.6793 24.5228 35.2497 24.4648C32.8796 24.1444 30.0346 23.9616 26.975 23.9298C27.4686 23.4327 27.9707 22.869 28.4774 22.2354C36.9133 22.461 40.4311 23.9475 40.4311 24.707ZM23.1846 20.6747C24.9716 20.5714 26.6168 19.9435 27.702 19.0043C28.0386 18.7151 28.3933 18.399 28.7677 18.0656C31.3061 15.8044 34.7826 12.7076 39.4528 11.5256C39.4584 11.5426 39.4648 11.5596 39.4704 11.5737C39.4414 11.6045 38.0165 12.3541 37.3213 12.6854C34.5064 14.0283 31.316 15.5516 28.2069 19.988C25.4617 23.9061 22.4951 25.9767 19.6299 25.9767C19.502 25.9767 19.3916 25.9742 19.3089 25.9704C19.2877 25.9689 17.2238 25.8554 17.2903 24.4966C17.4023 22.2064 20.65 20.8207 23.1846 20.6747ZM16.2157 22.8012C15.9159 23.3432 15.743 23.899 15.7221 24.4354C15.7207 24.4711 15.7249 24.5023 15.7249 24.5373C15.4721 24.5747 15.225 24.614 14.9845 24.6557C13.7487 24.87 12.7049 25.1359 11.85 25.4421C11.5462 25.2911 11.5692 24.7452 11.5692 24.707C11.5696 24.2364 12.6077 23.3789 16.2157 22.8012Z" fill="url(#paint1_linear_2044_461)"/>
<path d="M23.0856 16.5812C23.2404 16.7541 23.4533 16.8425 23.6676 16.8425C23.8514 16.8425 24.0367 16.7778 24.1863 16.6466C24.5102 16.3627 24.5427 15.8677 24.2623 15.5416C24.0813 15.3309 23.7121 14.7935 24.1983 14.3536C24.6661 13.9303 24.9277 13.4046 24.9557 12.8332C25.0038 11.8375 24.3291 11.0652 24.2513 10.9807C23.9625 10.6621 23.4734 10.6384 23.1513 10.9259C22.8299 11.213 22.8027 11.7073 23.0859 12.0309C23.2641 12.2345 23.6262 12.7543 23.145 13.1892C21.8926 14.3221 22.4236 15.8383 23.0856 16.5812Z" fill="white"/>
<path d="M18.8761 17.9588C19.031 18.132 19.2438 18.2201 19.4581 18.2201C19.642 18.2201 19.8273 18.1547 19.9761 18.0242C20.3004 17.7403 20.3332 17.2456 20.0528 16.9192C19.8711 16.7081 19.502 16.1703 19.9892 15.7312C20.457 15.3072 20.7186 14.7821 20.7466 14.21C20.7947 13.2147 20.12 12.4425 20.0426 12.3583C19.7537 12.0411 19.264 12.0181 18.9419 12.3046C18.6208 12.592 18.5943 13.0863 18.8779 13.4109C19.055 13.6132 19.4171 14.1319 18.9362 14.5665C17.6824 15.699 18.2131 17.2159 18.8761 17.9588Z" fill="white"/>
<defs>
<linearGradient id="paint0_linear_2044_461" x1="26" y1="0" x2="44" y2="62.5" gradientUnits="userSpaceOnUse">
<stop stop-color="#2F4CDD"/>
<stop offset="1" stop-color="#D45BFF"/>
</linearGradient>
<linearGradient id="paint1_linear_2044_461" x1="24" y1="13.5" x2="39" y2="48" gradientUnits="userSpaceOnUse">
<stop stop-color="white"/>
<stop offset="1" stop-color="#DFAAFF"/>
</linearGradient>
</defs>
</svg>
