<svg width="84" height="84" viewBox="0 0 84 84" fill="none" xmlns="http://www.w3.org/2000/svg">
<circle cx="42" cy="42" r="42" fill="#DEE4FF"/>
<path d="M32 54.5H50.75C51.7442 54.4989 52.6974 54.1035 53.4004 53.4004C54.1035 52.6974 54.4989 51.7442 54.5 50.75V40.75C54.5 40.4185 54.3683 40.1005 54.1339 39.8661C53.8995 39.6317 53.5815 39.5 53.25 39.5C52.9185 39.5 52.6005 39.6317 52.3661 39.8661C52.1317 40.1005 52 40.4185 52 40.75V50.75C51.9997 51.0814 51.8679 51.3992 51.6336 51.6336C51.3992 51.8679 51.0814 51.9997 50.75 52H32C31.6686 51.9997 31.3508 51.8679 31.1164 51.6336C30.8821 51.3992 30.7503 51.0814 30.75 50.75V33.25C30.7503 32.9186 30.8821 32.6008 31.1164 32.3664C31.3508 32.1321 31.6686 32.0003 32 32H43.25C43.5815 32 43.8995 31.8683 44.1339 31.6339C44.3683 31.3995 44.5 31.0815 44.5 30.75C44.5 30.4185 44.3683 30.1005 44.1339 29.8661C43.8995 29.6317 43.5815 29.5 43.25 29.5H32C31.0058 29.5011 30.0526 29.8965 29.3496 30.5996C28.6465 31.3026 28.2511 32.2558 28.25 33.25V50.75C28.2511 51.7442 28.6465 52.6974 29.3496 53.4004C30.0526 54.1035 31.0058 54.4989 32 54.5Z" fill="#2F4CDD"/>
<path d="M53.25 24.5C52.0139 24.5 50.8055 24.8666 49.7777 25.5533C48.7499 26.2401 47.9488 27.2162 47.4758 28.3582C47.0027 29.5003 46.8789 30.7569 47.1201 31.9693C47.3613 33.1817 47.9565 34.2953 48.8306 35.1694C49.7047 36.0435 50.8183 36.6388 52.0307 36.8799C53.2431 37.1211 54.4997 36.9973 55.6418 36.5242C56.7838 36.0512 57.7599 35.2501 58.4467 34.2223C59.1334 33.1945 59.5 31.9861 59.5 30.75C59.498 29.093 58.8389 27.5044 57.6673 26.3327C56.4956 25.1611 54.907 24.502 53.25 24.5ZM53.25 34.5C52.5083 34.5 51.7833 34.2801 51.1666 33.868C50.5499 33.456 50.0693 32.8703 49.7855 32.1851C49.5016 31.4998 49.4274 30.7458 49.5721 30.0184C49.7167 29.291 50.0739 28.6228 50.5983 28.0983C51.1228 27.5739 51.791 27.2168 52.5184 27.0721C53.2458 26.9274 53.9998 27.0016 54.6851 27.2855C55.3703 27.5693 55.9559 28.0499 56.368 28.6666C56.7801 29.2833 57 30.0083 57 30.75C56.9989 31.7442 56.6035 32.6974 55.9004 33.4004C55.1974 34.1035 54.2442 34.4989 53.25 34.5Z" fill="#2F4CDD"/>
<path d="M34.5 37H40.75C41.0815 37 41.3995 36.8683 41.6339 36.6339C41.8683 36.3995 42 36.0815 42 35.75C42 35.4185 41.8683 35.1005 41.6339 34.8661C41.3995 34.6317 41.0815 34.5 40.75 34.5H34.5C34.1685 34.5 33.8505 34.6317 33.6161 34.8661C33.3817 35.1005 33.25 35.4185 33.25 35.75C33.25 36.0815 33.3817 36.3995 33.6161 36.6339C33.8505 36.8683 34.1685 37 34.5 37Z" fill="#2F4CDD"/>
<path d="M33.25 40.75C33.25 41.0815 33.3817 41.3995 33.6161 41.6339C33.8505 41.8683 34.1685 42 34.5 42H45.75C46.0815 42 46.3995 41.8683 46.6339 41.6339C46.8683 41.3995 47 41.0815 47 40.75C47 40.4185 46.8683 40.1005 46.6339 39.8661C46.3995 39.6317 46.0815 39.5 45.75 39.5H34.5C34.1685 39.5 33.8505 39.6317 33.6161 39.8661C33.3817 40.1005 33.25 40.4185 33.25 40.75Z" fill="#2F4CDD"/>
</svg>
