<svg width="current" height="current" viewBox="0 0 11 12" fill="none" xmlns="http://www.w3.org/2000/svg">
<path d="M10.5075 5.71478C10.5075 5.96746 10.4184 6.21172 10.2518 6.38859C10.0892 6.56968 9.86454 6.67075 9.63216 6.67075H6.13097V10.4778C6.13097 10.7305 6.03801 10.9747 5.87148 11.1516C5.70881 11.3285 5.48805 11.4296 5.25567 11.4296C5.02329 11.4296 4.79865 11.3285 4.63599 11.1516C4.46945 10.9747 4.3765 10.7305 4.3765 10.4778V6.67075H0.875299C0.642919 6.67075 0.418285 6.56968 0.255618 6.38859C0.0929521 6.21172 0 5.96746 0 5.71478C0 5.4621 0.0929521 5.22205 0.255618 5.04097C0.418285 4.86409 0.642919 4.76302 0.875299 4.76302H4.3765V0.955973C4.3765 0.703293 4.46945 0.459035 4.63599 0.282159C4.79865 0.101072 5.02329 0 5.25567 0C5.48805 0 5.70881 0.101072 5.87148 0.282159C6.03801 0.459035 6.13097 0.703293 6.13097 0.955973V4.76302H9.63216C9.86454 4.76302 10.0892 4.86409 10.2518 5.04097C10.4184 5.22205 10.5075 5.4621 10.5075 5.71478Z" fill="current"/>
</svg>
