<svg width="12" height="15" viewBox="0 0 12 15" fill="none" xmlns="http://www.w3.org/2000/svg">
<path d="M1.46479 5.93177H10.6857C10.8641 5.93177 11.0185 5.86659 11.1488 5.73612C11.279 5.60569 11.3444 5.45124 11.3444 5.27273C11.3444 5.09422 11.2791 4.93984 11.1488 4.80923L6.53832 0.195643C6.40806 0.0653586 6.25375 0 6.07525 0C5.89675 0 5.74244 0.0653586 5.61207 0.195643L1.0016 4.80923C0.871225 4.9397 0.806091 5.09422 0.806091 5.27273C0.806091 5.45121 0.871225 5.60569 1.0016 5.73612C1.13212 5.86659 1.28643 5.93177 1.46479 5.93177Z" fill="#D3D6E4"/>
<path d="M10.6857 8.56836H1.46479C1.28629 8.56836 1.13198 8.63357 1.0016 8.76389C0.871225 8.89436 0.806091 9.04877 0.806091 9.22728C0.806091 9.40579 0.871225 9.56032 1.0016 9.69071L5.61207 14.3042C5.74259 14.4347 5.8969 14.5 6.07525 14.5C6.2536 14.5 6.40806 14.4347 6.53832 14.3042L11.1488 9.69067C11.279 9.56032 11.3444 9.40579 11.3444 9.22725C11.3444 9.04877 11.2791 8.89436 11.1488 8.76386C11.0185 8.63343 10.8641 8.56836 10.6857 8.56836Z" fill="#D3D6E4"/>
</svg>
