<svg width="current" height="current" viewBox="0 0 24 24" fill="none" xmlns="http://www.w3.org/2000/svg">
<path d="M21.75 9.75H16.5V3.75C16.4993 3.15346 16.2621 2.58155 15.8403 2.15973C15.4185 1.73792 14.8465 1.50066 14.25 1.5H3.75C3.15346 1.50066 2.58155 1.73792 2.15973 2.15973C1.73792 2.58155 1.50066 3.15346 1.5 3.75V20.25C1.50066 20.8465 1.73792 21.4185 2.15973 21.8403C2.58155 22.2621 3.15346 22.4993 3.75 22.5H18.75C19.7442 22.4988 20.6973 22.1034 21.4004 21.4004C22.1034 20.6973 22.4988 19.7442 22.5 18.75V10.5C22.5 10.3011 22.421 10.1103 22.2803 9.96967C22.1397 9.82902 21.9489 9.75 21.75 9.75ZM3 20.25V3.75C3.00018 3.55114 3.07925 3.36048 3.21987 3.21987C3.36048 3.07925 3.55114 3.00018 3.75 3H14.25C14.4489 3.00018 14.6395 3.07925 14.7801 3.21987C14.9207 3.36048 14.9998 3.55114 15 3.75V21H3.75C3.55114 20.9998 3.36048 20.9207 3.21987 20.7801C3.07925 20.6395 3.00018 20.4489 3 20.25ZM21 18.75C20.9993 19.3465 20.7621 19.9185 20.3403 20.3403C19.9185 20.7621 19.3465 20.9993 18.75 21H16.5V11.25H21V18.75Z" fill="current"/>
<path d="M12.3 6.15L9.72404 8.0814L7.91601 6.876C7.79278 6.79395 7.64803 6.75017 7.49998 6.75017C7.35193 6.75017 7.20719 6.79395 7.08396 6.876L4.83395 8.376C4.75103 8.4302 4.67966 8.50029 4.62397 8.58223C4.56828 8.66416 4.52938 8.75632 4.5095 8.85338C4.48963 8.95043 4.48919 9.05047 4.50819 9.14769C4.5272 9.24492 4.56528 9.33742 4.62024 9.41985C4.67519 9.50228 4.74594 9.57301 4.82838 9.62794C4.91082 9.68288 5.00333 9.72094 5.10057 9.73992C5.1978 9.7589 5.29783 9.75843 5.39488 9.73853C5.49194 9.71864 5.58408 9.67971 5.66601 9.624L7.49998 8.40127L9.33396 9.62378C9.46293 9.71017 9.61559 9.7543 9.77077 9.75004C9.92594 9.74578 10.076 9.69334 10.2 9.6L13.2 7.35C13.2788 7.29091 13.3452 7.21687 13.3953 7.13212C13.4455 7.04737 13.4785 6.95357 13.4925 6.85607C13.5064 6.75856 13.501 6.65927 13.4765 6.56386C13.4521 6.46845 13.4091 6.37879 13.35 6.3C13.2909 6.22121 13.2169 6.15482 13.1321 6.10464C13.0474 6.05446 12.9536 6.02147 12.8561 6.00754C12.7586 5.99361 12.6593 5.99902 12.5639 6.02346C12.4684 6.04791 12.3788 6.0909 12.3 6.15Z" fill="current"/>
<path d="M5.25 14.25H9C9.19891 14.25 9.38968 14.171 9.53033 14.0303C9.67098 13.8897 9.75 13.6989 9.75 13.5C9.75 13.3011 9.67098 13.1103 9.53033 12.9697C9.38968 12.829 9.19891 12.75 9 12.75H5.25C5.05109 12.75 4.86032 12.829 4.71967 12.9697C4.57902 13.1103 4.5 13.3011 4.5 13.5C4.5 13.6989 4.57902 13.8897 4.71967 14.0303C4.86032 14.171 5.05109 14.25 5.25 14.25Z" fill="current"/>
<path d="M12 15.75H5.25C5.05109 15.75 4.86032 15.829 4.71967 15.9697C4.57902 16.1103 4.5 16.3011 4.5 16.5C4.5 16.6989 4.57902 16.8897 4.71967 17.0303C4.86032 17.171 5.05109 17.25 5.25 17.25H12C12.1989 17.25 12.3897 17.171 12.5303 17.0303C12.671 16.8897 12.75 16.6989 12.75 16.5C12.75 16.3011 12.671 16.1103 12.5303 15.9697C12.3897 15.829 12.1989 15.75 12 15.75Z" fill="current"/>
</svg>
