<svg width="current" height="current" viewBox="0 0 24 24" fill="none" xmlns="http://www.w3.org/2000/svg">
<path d="M23.7924 22.7761L17.9588 16.9437C19.5236 15.145 20.4711 12.7982 20.4711 10.2333C20.4711 4.58714 15.8776 0 10.2355 0C4.58816 0 0 4.59246 0 10.2333C0 15.8741 4.59348 20.4665 10.2355 20.4665C12.8011 20.4665 15.1484 19.5193 16.9474 17.9548L22.7811 23.7871C22.9195 23.9255 23.1058 24 23.2868 24C23.4677 24 23.654 23.9308 23.7924 23.7871C24.0692 23.5104 24.0692 23.0528 23.7924 22.7761ZM1.4318 10.2333C1.4318 5.38004 5.38124 1.43681 10.2302 1.43681C15.0845 1.43681 19.0286 5.38537 19.0286 10.2333C19.0286 15.0812 15.0845 19.035 10.2302 19.035C5.38124 19.035 1.4318 15.0865 1.4318 10.2333Z" fill="#A4A4A4"/>
</svg>
